<?xml version="1.0" encoding="UTF-8" ?>
<svg version="1.1" width="256" height="256" xmlns="http://www.w3.org/2000/svg" shape-rendering="crispEdges">
<rect x="192" y="76" width="20" height="4" fill="#330000" opacity="0.898039" />
<rect x="184" y="80" width="8" height="4" fill="#330000" opacity="0.898039" />
<rect x="192" y="80" width="20" height="44" fill="#7F131C" />
<rect x="212" y="80" width="12" height="4" fill="#330000" opacity="0.898039" />
<rect x="180" y="84" width="4" height="8" fill="#330000" opacity="0.898039" />
<rect x="184" y="84" width="8" height="32" fill="#7F131C" />
<rect x="212" y="84" width="12" height="40" fill="#7F131C" />
<rect x="224" y="84" width="12" height="4" fill="#330000" opacity="0.898039" />
<rect x="224" y="88" width="12" height="40" fill="#7F131C" />
<rect x="236" y="88" width="4" height="4" fill="#330000" opacity="0.898039" />
<rect x="172" y="92" width="8" height="4" fill="#330000" opacity="0.898039" />
<rect x="180" y="92" width="4" height="20" fill="#7F131C" />
<rect x="236" y="92" width="4" height="36" fill="#7F131C" />
<rect x="240" y="92" width="4" height="4" fill="#330000" opacity="0.898039" />
<rect x="172" y="96" width="4" height="8" fill="#330000" opacity="0.898039" />
<rect x="176" y="96" width="4" height="4" fill="#7F131C" />
<rect x="240" y="96" width="4" height="32" fill="#7F131C" />
<rect x="244" y="96" width="4" height="4" fill="#330000" opacity="0.898039" />
<rect x="176" y="100" width="4" height="20" fill="#330000" opacity="0.898039" />
<rect x="244" y="100" width="4" height="4" fill="#870015" />
<rect x="248" y="100" width="4" height="28" fill="#330000" opacity="0.898039" />
<rect x="244" y="104" width="4" height="20" fill="#7F131C" />
<rect x="180" y="112" width="4" height="4" fill="#330000" opacity="0.898039" />
<rect x="124" y="116" width="52" height="4" fill="#330000" opacity="0.898039" />
<rect x="180" y="116" width="4" height="28" fill="#7F131C" />
<rect x="184" y="116" width="4" height="8" fill="#330000" opacity="0.898039" />
<rect x="188" y="116" width="4" height="4" fill="#7F131C" />
<rect x="112" y="120" width="12" height="4" fill="#330000" opacity="0.898039" />
<rect x="124" y="120" width="48" height="4" fill="#7F131C" />
<rect x="172" y="120" width="4" height="4" fill="#330000" opacity="0.898039" />
<rect x="176" y="120" width="4" height="32" fill="#7F131C" />
<rect x="188" y="120" width="4" height="4" fill="#330000" opacity="0.898039" />
<rect x="108" y="124" width="4" height="4" fill="#330000" opacity="0.898039" />
<rect x="112" y="124" width="56" height="16" fill="#7F131C" />
<rect x="168" y="124" width="4" height="24" fill="#330000" opacity="0.898039" />
<rect x="172" y="124" width="4" height="24" fill="#7F131C" />
<rect x="184" y="124" width="4" height="52" fill="#7F131C" />
<rect x="188" y="124" width="4" height="4" fill="#870015" />
<rect x="192" y="124" width="4" height="4" fill="#330000" opacity="0.898039" />
<rect x="196" y="124" width="16" height="4" fill="#7F131C" />
<rect x="212" y="124" width="4" height="4" fill="#330000" opacity="0.898039" />
<rect x="216" y="124" width="8" height="4" fill="#7F131C" />
<rect x="244" y="124" width="4" height="4" fill="#870015" />
<rect x="100" y="128" width="8" height="4" fill="#330000" opacity="0.898039" />
<rect x="108" y="128" width="4" height="44" fill="#7F131C" />
<rect x="188" y="128" width="8" height="48" fill="#7F131C" />
<rect x="196" y="128" width="4" height="4" fill="#330000" opacity="0.898039" />
<rect x="200" y="128" width="16" height="4" fill="#7F131C" />
<rect x="216" y="128" width="32" height="4" fill="#330000" opacity="0.898039" />
<rect x="96" y="132" width="8" height="4" fill="#330000" opacity="0.898039" />
<rect x="104" y="132" width="4" height="36" fill="#7F131C" />
<rect x="196" y="132" width="4" height="48" fill="#7F131C" />
<rect x="200" y="132" width="8" height="4" fill="#330000" opacity="0.898039" />
<rect x="208" y="132" width="16" height="4" fill="#7F131C" />
<rect x="224" y="132" width="4" height="4" fill="#330000" opacity="0.898039" />
<rect x="228" y="132" width="4" height="8" fill="#7F131C" />
<rect x="232" y="132" width="8" height="4" fill="#330000" opacity="0.898039" />
<rect x="240" y="132" width="4" height="4" fill="#7F131C" />
<rect x="244" y="132" width="4" height="4" fill="#330000" opacity="0.898039" />
<rect x="68" y="136" width="32" height="4" fill="#330000" opacity="0.898039" />
<rect x="100" y="136" width="4" height="24" fill="#7F131C" />
<rect x="200" y="136" width="8" height="8" fill="#7F131C" />
<rect x="208" y="136" width="4" height="4" fill="#330000" opacity="0.898039" />
<rect x="212" y="136" width="16" height="4" fill="#7F131C" />
<rect x="232" y="136" width="8" height="4" fill="#7F131C" />
<rect x="240" y="136" width="4" height="4" fill="#330000" opacity="0.898039" />
<rect x="0" y="140" width="72" height="4" fill="#330000" opacity="0.898039" />
<rect x="72" y="140" width="28" height="32" fill="#7F131C" />
<rect x="112" y="140" width="12" height="40" fill="#7F131C" />
<rect x="124" y="140" width="8" height="4" fill="#330000" opacity="0.898039" />
<rect x="132" y="140" width="36" height="4" fill="#7F131C" />
<rect x="208" y="140" width="4" height="40" fill="#7F131C" />
<rect x="212" y="140" width="28" height="4" fill="#330000" opacity="0.898039" />
<rect x="4" y="144" width="4" height="4" fill="#330000" opacity="0.898039" />
<rect x="8" y="144" width="64" height="4" fill="#7F131C" />
<rect x="124" y="144" width="8" height="40" fill="#7F131C" />
<rect x="132" y="144" width="4" height="4" fill="#330000" opacity="0.898039" />
<rect x="136" y="144" width="32" height="4" fill="#7F131C" />
<rect x="180" y="144" width="4" height="8" fill="#330000" opacity="0.898039" />
<rect x="200" y="144" width="4" height="36" fill="#7F131C" />
<rect x="204" y="144" width="4" height="8" fill="#330000" opacity="0.898039" />
<rect x="212" y="144" width="28" height="8" fill="#7F131C" />
<rect x="8" y="148" width="4" height="4" fill="#330000" opacity="0.898039" />
<rect x="12" y="148" width="60" height="4" fill="#7F131C" />
<rect x="132" y="148" width="4" height="20" fill="#7F131C" />
<rect x="136" y="148" width="4" height="4" fill="#330000" opacity="0.898039" />
<rect x="140" y="148" width="32" height="4" fill="#7F131C" />
<rect x="172" y="148" width="4" height="4" fill="#330000" opacity="0.898039" />
<rect x="240" y="148" width="4" height="8" fill="#330000" opacity="0.898039" />
<rect x="12" y="152" width="8" height="4" fill="#330000" opacity="0.898039" />
<rect x="20" y="152" width="52" height="4" fill="#7F131C" />
<rect x="136" y="152" width="4" height="12" fill="#7F131C" />
<rect x="140" y="152" width="4" height="20" fill="#330000" opacity="0.898039" />
<rect x="144" y="152" width="32" height="4" fill="#7F131C" />
<rect x="176" y="152" width="4" height="4" fill="#330000" opacity="0.898039" />
<rect x="180" y="152" width="4" height="20" fill="#7F131C" />
<rect x="204" y="152" width="4" height="8" fill="#7F131C" />
<rect x="212" y="152" width="16" height="8" fill="#7F131C" />
<rect x="228" y="152" width="4" height="12" fill="#330000" opacity="0.898039" />
<rect x="232" y="152" width="8" height="20" fill="#7F131C" />
<rect x="20" y="156" width="4" height="4" fill="#330000" opacity="0.898039" />
<rect x="24" y="156" width="48" height="4" fill="#7F131C" />
<rect x="144" y="156" width="24" height="4" fill="#7F131C" />
<rect x="168" y="156" width="4" height="8" fill="#330000" opacity="0.898039" />
<rect x="172" y="156" width="8" height="4" fill="#7F131C" />
<rect x="240" y="156" width="4" height="16" fill="#7F131C" />
<rect x="244" y="156" width="4" height="16" fill="#330000" opacity="0.898039" />
<rect x="24" y="160" width="8" height="4" fill="#330000" opacity="0.898039" />
<rect x="32" y="160" width="40" height="4" fill="#7F131C" />
<rect x="100" y="160" width="4" height="8" fill="#330000" opacity="0.898039" />
<rect x="144" y="160" width="4" height="4" fill="#7F131C" />
<rect x="148" y="160" width="20" height="4" fill="#330000" opacity="0.898039" />
<rect x="172" y="160" width="8" height="4" fill="#330000" opacity="0.898039" />
<rect x="204" y="160" width="4" height="4" fill="#330000" opacity="0.898039" />
<rect x="212" y="160" width="12" height="4" fill="#7F131C" />
<rect x="224" y="160" width="4" height="4" fill="#330000" opacity="0.898039" />
<rect x="28" y="164" width="12" height="4" fill="#330000" opacity="0.898039" />
<rect x="40" y="164" width="32" height="4" fill="#7F131C" />
<rect x="136" y="164" width="4" height="8" fill="#330000" opacity="0.898039" />
<rect x="144" y="164" width="4" height="8" fill="#330000" opacity="0.898039" />
<rect x="176" y="164" width="4" height="8" fill="#330000" opacity="0.898039" />
<rect x="204" y="164" width="4" height="16" fill="#7F131C" />
<rect x="212" y="164" width="12" height="4" fill="#330000" opacity="0.898039" />
<rect x="224" y="164" width="8" height="4" fill="#7F131C" />
<rect x="44" y="168" width="12" height="4" fill="#330000" opacity="0.898039" />
<rect x="56" y="168" width="16" height="4" fill="#7F131C" />
<rect x="100" y="168" width="4" height="4" fill="#7F131C" />
<rect x="104" y="168" width="4" height="4" fill="#330000" opacity="0.898039" />
<rect x="132" y="168" width="4" height="4" fill="#330000" opacity="0.898039" />
<rect x="212" y="168" width="12" height="8" fill="#7F131C" />
<rect x="224" y="168" width="4" height="8" fill="#330000" opacity="0.898039" />
<rect x="228" y="168" width="4" height="4" fill="#7F131C" />
<rect x="56" y="172" width="48" height="4" fill="#330000" opacity="0.898039" />
<rect x="108" y="172" width="4" height="8" fill="#330000" opacity="0.898039" />
<rect x="132" y="172" width="16" height="12" fill="#7F131C" />
<rect x="148" y="172" width="4" height="4" fill="#330000" opacity="0.898039" />
<rect x="180" y="172" width="4" height="8" fill="#330000" opacity="0.898039" />
<rect x="228" y="172" width="16" height="4" fill="#330000" opacity="0.898039" />
<rect x="148" y="176" width="4" height="8" fill="#7F131C" />
<rect x="152" y="176" width="4" height="8" fill="#330000" opacity="0.898039" />
<rect x="184" y="176" width="8" height="4" fill="#330000" opacity="0.898039" />
<rect x="192" y="176" width="4" height="4" fill="#7F131C" />
<rect x="212" y="176" width="4" height="4" fill="#7F131C" />
<rect x="216" y="176" width="8" height="4" fill="#330000" opacity="0.898039" />
<rect x="112" y="180" width="12" height="4" fill="#330000" opacity="0.898039" />
<rect x="192" y="180" width="24" height="4" fill="#330000" opacity="0.898039" />
<rect x="124" y="184" width="28" height="4" fill="#330000" opacity="0.898039" />
</svg>